<?xml version="1.0" standalone="no"?>
<!DOCTYPE svg PUBLIC "-//W3C//DTD SVG 20010904//EN"
 "http://www.w3.org/TR/2001/REC-SVG-20010904/DTD/svg10.dtd">
<svg version="1.0" xmlns="http://www.w3.org/2000/svg"
 width="627.000000pt" height="623.000000pt" viewBox="0 0 627.000000 623.000000"
 preserveAspectRatio="xMidYMid meet">

<g transform="translate(0.000000,623.000000) scale(0.100000,-0.100000)"
fill="#000000" stroke="none">
<path d="M3055 4320 c-466 -47 -844 -392 -936 -855 -28 -141 -16 -357 29 -502
l16 -53 54 0 c47 0 54 2 49 18 -93 288 -79 528 43 772 50 99 110 178 203 266
189 178 414 261 677 251 154 -6 250 -30 385 -96 295 -145 486 -417 526 -751
15 -120 2 -255 -36 -376 -14 -44 -25 -80 -25 -81 0 -2 25 -3 55 -3 l54 0 16
53 c92 307 38 647 -145 911 -60 87 -189 214 -275 271 -72 48 -192 106 -260
128 -128 41 -300 60 -430 47z"/>
<path d="M2830 3431 c0 -314 2 -362 16 -375 13 -14 51 -16 261 -16 219 0 245
2 239 16 -3 9 -6 177 -6 375 l0 359 -255 0 -255 0 0 -359z m445 279 c0 -12
-22 -15 -127 -18 -103 -2 -128 0 -128 11 0 25 13 28 134 25 100 -3 121 -6 121
-18z m-305 -74 c0 -7 -11 -23 -25 -36 -20 -19 -30 -22 -42 -14 -25 15 -27 34
-5 34 10 0 27 9 37 20 18 20 35 18 35 -4z m305 -26 c0 -12 -22 -15 -127 -18
-103 -2 -128 0 -128 11 0 25 13 28 134 25 100 -3 121 -6 121 -18z m3 -102 c-3
-9 -41 -14 -131 -16 -109 -2 -127 0 -127 13 0 13 20 15 131 15 100 0 130 -3
127 -12z m-308 -52 c0 -16 -38 -66 -50 -66 -14 0 -41 31 -35 41 4 5 14 9 25 9
10 0 20 7 24 15 7 19 36 20 36 1z m308 -48 c-3 -9 -41 -14 -131 -16 -109 -2
-127 0 -127 13 0 13 20 15 131 15 100 0 130 -3 127 -12z m-318 -97 c0 -5 11
-12 25 -15 14 -4 25 -13 25 -21 0 -9 -10 -15 -25 -15 -35 0 -32 -31 5 -52 33
-19 39 -50 14 -70 -8 -7 -25 -22 -36 -32 -19 -17 -22 -17 -32 -4 -6 9 -20 17
-31 19 -28 6 -26 35 3 32 31 -4 29 30 -3 51 -34 22 -31 51 7 87 33 30 48 36
48 20z m315 -6 c0 -6 -39 -11 -92 -13 -79 -2 -93 0 -93 13 0 13 14 15 93 13
53 -2 92 -7 92 -13z m0 -100 c0 -6 -39 -11 -92 -13 -79 -2 -93 0 -93 13 0 13
14 15 93 13 53 -2 92 -7 92 -13z m0 -100 c0 -6 -39 -11 -92 -13 -79 -2 -93 0
-93 13 0 13 14 15 93 13 53 -2 92 -7 92 -13z"/>
<path d="M2921 3244 c0 -11 3 -14 6 -6 3 7 2 16 -1 19 -3 4 -6 -2 -5 -13z"/>
<path d="M2960 3165 c0 -8 5 -15 10 -15 6 0 10 7 10 15 0 8 -4 15 -10 15 -5 0
-10 -7 -10 -15z"/>
<path d="M2737 3558 c-32 -25 -37 -67 -37 -344 l0 -274 153 0 c113 -1 158 -4
177 -15 17 -9 55 -14 115 -14 60 0 98 5 115 14 19 11 65 14 188 15 l162 0 0
290 0 291 -25 24 c-22 23 -32 25 -120 25 l-95 0 0 -105 0 -104 73 -3 72 -3 3
-143 c3 -159 -2 -176 -53 -198 -44 -18 -563 -20 -614 -3 -57 20 -61 41 -61
314 0 230 -1 245 -18 245 -10 0 -26 -6 -35 -12z"/>
<path d="M3377 3324 c-4 -4 -7 -60 -7 -123 0 -137 11 -164 63 -159 48 5 57 33
55 168 l-3 115 -50 3 c-28 2 -54 0 -58 -4z"/>
<path d="M2654 2569 c-16 -5 -41 -20 -55 -35 -21 -23 -24 -34 -24 -109 0 -92
12 -116 72 -141 34 -15 128 -18 182 -8 27 6 31 11 31 38 l0 32 -88 -4 c-109
-5 -122 4 -122 82 0 79 17 90 125 83 l86 -5 -3 32 c-2 25 -8 32 -33 37 -44 10
-135 9 -171 -2z"/>
<path d="M3822 2573 l-33 -4 3 -147 3 -147 38 -3 37 -3 0 39 0 40 86 3 c79 4
87 6 110 32 18 22 24 40 24 78 0 63 -13 87 -55 105 -32 13 -134 17 -213 7z
m183 -108 l0 -40 -67 -3 -68 -3 0 46 0 46 68 -3 67 -3 0 -40z"/>
<path d="M4247 2573 l-28 -4 3 -147 3 -147 35 0 c33 0 35 2 38 38 l3 37 65 0
c85 0 128 18 143 60 23 69 6 131 -44 154 -32 15 -145 20 -218 9z m188 -108 l0
-40 -67 -3 -68 -3 0 46 0 46 68 -3 67 -3 0 -40z"/>
<path d="M1780 2419 l0 -150 38 3 37 3 3 58 3 57 80 0 80 0 -3 33 -3 32 -77 3
c-75 3 -78 4 -78 27 0 25 0 25 100 25 l100 0 0 30 0 30 -140 0 -140 0 0 -151z"/>
<path d="M2195 2434 c-36 -75 -65 -143 -65 -150 0 -9 12 -14 30 -14 24 0 35 7
48 30 17 29 19 30 93 30 76 0 77 0 89 -30 10 -25 18 -30 46 -30 19 0 34 5 34
10 0 6 -29 72 -64 148 l-64 137 -41 3 -41 3 -65 -137z m118 39 c8 -16 18 -38
21 -50 7 -22 4 -23 -38 -23 l-45 0 22 50 c12 27 23 50 24 50 1 0 9 -12 16 -27z"/>
<path d="M2970 2540 c0 -30 1 -30 55 -30 l54 0 3 -117 3 -118 35 0 35 0 3 118
3 117 59 0 c60 0 60 0 60 30 l0 30 -155 0 -155 0 0 -30z"/>
<path d="M3397 2429 c-37 -78 -64 -145 -61 -150 3 -5 19 -9 35 -9 24 0 32 6
40 30 11 30 11 30 90 30 77 0 79 -1 94 -30 12 -23 22 -30 45 -30 17 0 30 5 30
13 0 6 -28 74 -62 149 l-63 137 -41 1 -41 0 -66 -141z m110 -27 c-21 -2 -41
-1 -43 1 -2 2 5 26 17 53 l22 48 22 -49 21 -50 -39 -3z"/>
<path d="M1780 1962 c0 -5 14 -7 30 -4 17 2 30 6 30 8 0 2 -13 4 -30 4 -16 0
-30 -4 -30 -8z"/>
<path d="M1917 1964 c-11 -11 -8 -26 3 -19 6 3 10 1 10 -6 0 -7 3 -10 6 -6 3
3 2 13 -3 22 -5 8 -12 12 -16 9z"/>
<path d="M2029 1953 c-13 -16 -12 -17 3 -4 10 7 27 11 38 8 11 -3 18 -1 14 4
-9 15 -41 10 -55 -8z"/>
<path d="M2154 1961 c18 -7 66 -3 66 5 0 2 -19 4 -42 3 -31 0 -37 -3 -24 -8z"/>
<path d="M2272 1933 c-2 -51 5 -73 26 -73 14 0 14 1 -1 13 -9 7 -18 31 -20 57
l-4 45 -1 -42z"/>
<path d="M2342 1923 c-1 -30 -7 -53 -14 -56 -10 -4 -10 -6 0 -6 18 -1 24 20
19 70 l-4 44 -1 -52z"/>
<path d="M2411 1913 c1 -32 4 -48 6 -35 2 12 10 22 17 22 8 0 21 -10 30 -22
l17 -23 -11 22 c-8 16 -7 28 2 42 15 25 -4 51 -38 51 -23 0 -24 -3 -23 -57z
m54 22 c0 -13 -8 -21 -22 -23 -19 -3 -23 1 -23 23 0 22 4 26 23 23 14 -2 22
-10 22 -23z"/>
<path d="M2560 1960 c0 -5 5 -10 10 -10 6 0 10 -7 10 -17 0 -9 3 -14 6 -10 8
8 -5 47 -17 47 -5 0 -9 -4 -9 -10z"/>
<path d="M2698 1963 c7 -3 16 -2 19 1 4 3 -2 6 -13 5 -11 0 -14 -3 -6 -6z"/>
<path d="M2798 1963 c6 -2 18 -2 25 0 6 3 1 5 -13 5 -14 0 -19 -2 -12 -5z"/>
<path d="M2892 1958 c-14 -14 -16 -67 -3 -86 12 -20 65 -11 67 11 2 13 1 14
-3 2 -3 -11 -14 -15 -31 -13 -24 3 -27 7 -27 43 0 31 4 41 19 43 11 2 26 -4
33 -14 7 -10 13 -13 13 -8 0 15 -22 34 -40 34 -9 0 -21 -5 -28 -12z"/>
<path d="M3022 1913 l2 -58 3 49 c4 44 5 47 19 30 13 -17 13 -16 3 9 -19 43
-29 32 -27 -30z"/>
<path d="M3090 1924 c0 -27 -4 -43 -10 -39 -6 3 -7 -1 -4 -9 13 -33 24 -14 24
39 0 30 -2 55 -5 55 -3 0 -5 -21 -5 -46z"/>
<path d="M3230 1915 c0 -30 4 -55 9 -55 4 0 6 11 4 24 -4 21 -1 25 23 29 l29
4 -27 2 c-21 1 -28 6 -28 20 0 14 8 21 28 24 25 4 25 4 -5 6 l-33 1 0 -55z"/>
<path d="M3351 1918 c0 -32 2 -58 7 -58 4 0 6 19 4 43 -5 70 -10 76 -11 15z"/>
<path d="M3460 1915 c0 -30 4 -55 9 -55 4 0 6 11 4 24 -4 21 -1 25 23 29 l29
4 -27 2 c-21 1 -28 6 -28 20 0 15 8 21 33 24 31 4 31 4 -5 5 l-38 2 0 -55z"/>
<path d="M3592 1958 c-7 -7 -12 -19 -11 -27 0 -9 4 -6 10 8 8 20 14 23 42 17
23 -4 28 -3 17 4 -20 13 -44 12 -58 -2z"/>
<path d="M3717 1963 c19 -4 23 -12 26 -56 l3 -52 2 52 c2 45 5 52 25 56 12 2
0 4 -28 4 -27 0 -40 -2 -28 -4z"/>
<path d="M3860 1963 c14 -3 29 -10 33 -17 6 -7 7 -6 4 4 -2 8 -16 16 -33 17
-25 1 -26 0 -4 -4z"/>
<path d="M3972 1958 c-7 -7 -12 -19 -11 -27 0 -10 4 -7 9 7 6 13 18 22 30 22
12 0 24 -9 30 -22 5 -14 9 -17 9 -7 1 19 -18 39 -39 39 -9 0 -21 -5 -28 -12z"/>
<path d="M4102 1913 l1 -58 6 48 6 48 24 -46 c13 -25 28 -45 32 -45 5 0 8 26
7 58 l-1 57 -6 -50 -6 -50 -22 42 c-34 63 -43 62 -41 -4z"/>
<path d="M4238 1915 c2 -30 7 -55 10 -55 4 0 5 21 3 46 -2 32 1 49 10 55 11 7
9 9 -6 9 -18 0 -20 -5 -17 -55z"/>
<path d="M4358 1963 c7 -3 16 -2 19 1 4 3 -2 6 -13 5 -11 0 -14 -3 -6 -6z"/>
<path d="M4480 1960 c0 -5 5 -10 10 -10 6 0 10 5 10 10 0 6 -4 10 -10 10 -5 0
-10 -4 -10 -10z"/>
<path d="M2666 1944 c-15 -38 0 -84 28 -84 5 0 2 6 -9 14 -14 10 -17 21 -12
50 6 38 3 47 -7 20z"/>
<path d="M4327 1953 c-21 -21 0 -93 27 -93 5 0 2 6 -8 13 -14 10 -17 23 -14
50 2 20 3 37 3 37 -1 0 -5 -3 -8 -7z"/>
<path d="M4466 1924 c-11 -28 -7 -34 24 -34 17 0 30 4 30 9 0 4 -12 6 -26 3
-23 -4 -25 -2 -19 17 7 24 0 29 -9 5z"/>
<path d="M1780 1915 c0 -8 9 -10 25 -7 14 2 25 6 25 7 0 1 -11 5 -25 7 -16 3
-25 1 -25 -7z"/>
<path d="M1896 1914 c-9 -23 -8 -24 20 -24 15 0 33 -8 40 -17 11 -15 12 -13 1
15 -6 18 -13 28 -15 22 -2 -5 -12 -10 -23 -10 -12 0 -16 5 -13 15 4 8 4 15 1
15 -3 0 -8 -7 -11 -16z"/>
<path d="M2011 1914 c-2 -34 21 -56 54 -51 l30 4 -32 2 c-27 1 -34 6 -42 34
-6 21 -9 25 -10 11z"/>
<path d="M2540 1898 c0 -4 14 -8 30 -8 17 0 30 -5 30 -12 0 -6 3 -9 6 -5 3 3
2 11 -3 19 -9 14 -63 19 -63 6z"/>
<path d="M3581 1903 c-2 -27 13 -43 39 -43 16 0 31 4 34 8 3 5 -8 6 -24 4 -24
-3 -32 0 -39 19 -5 13 -10 19 -10 12z"/>
<path d="M3854 1903 c11 -3 28 -15 38 -27 19 -21 19 -21 2 7 -10 17 -24 27
-38 26 -19 -1 -19 -2 -2 -6z"/>
<path d="M3963 1890 c2 -21 7 -25 37 -25 27 0 35 4 38 20 2 18 2 18 -8 3 -15
-25 -49 -22 -60 5 -10 22 -10 22 -7 -3z"/>
<path d="M2720 1870 c-13 -8 -12 -10 3 -10 9 0 17 5 17 10 0 12 -1 12 -20 0z"/>
<path d="M4380 1870 c-9 -6 -10 -10 -3 -10 6 0 15 5 18 10 8 12 4 12 -15 0z"/>
</g>
</svg>
